<svg xmlns="http://www.w3.org/2000/svg" width="126" height="126" viewBox="0 0 126 126">
  <g id="Grupo_740" data-name="Grupo 740" transform="translate(-1 -1)">
    <path id="Trazado_2227" data-name="Trazado 2227" d="M39.366,7l-2.455,7.26L40.3,15.409,44.968,1.622l-3.256.9A55.645,55.645,0,0,0,1,56.023H4.582A52.08,52.08,0,0,1,39.366,7Z" transform="translate(0 0.492)" fill="#fff"/>
    <path id="Trazado_2228" data-name="Trazado 2228" d="M78.834,32A52.08,52.08,0,0,1,44.05,81.022L46.5,73.763l-3.394-1.148L38.448,86.4l3.256-.9A55.649,55.649,0,0,0,82.416,32Z" transform="translate(44.584 39.478)" fill="#fff"/>
    <path id="Trazado_2229" data-name="Trazado 2229" d="M55.3,12A43.3,43.3,0,1,0,98.6,55.3,43.348,43.348,0,0,0,55.3,12ZM86.036,31.428l-4.674-.011-11.4-8.283L68.5,18.681A39.081,39.081,0,0,1,86.036,31.428ZM60.984,85.606H49.618L44.967,73.043l2.89-4.756H62.742l2.89,4.756ZM21.634,35.764l7.216-.017L32.237,47.8,22.41,55.566l-5.872-4.286A38.641,38.641,0,0,1,21.634,35.764Zm20.449-8.326,11.053,7.369V41.15L41.992,48.58,36.5,46.75l-.037.1L32.886,34.118Zm26.435,0,9.195,6.681L74.137,46.854l-.035-.106-5.491,1.829L57.466,41.15V34.807ZM44.881,51.857,55.3,44.91l10.42,6.947-3.962,12.1H48.841ZM20.177,59.3l4.356,13.4-1.448,4.488a38.731,38.731,0,0,1-6.692-20.653Zm8.052,10.766L24.718,59.259l10.57-8.35,5.3,1.769,4.092,12.5-3.3,5.425Zm40.987.533-3.3-5.425,4.092-12.5,5.3-1.769,10.57,8.35L82.373,70.066Zm16.853,2.1,4.356-13.4,3.785-2.762a38.731,38.731,0,0,1-6.692,20.653Zm2.124-17.135L78.365,47.8l3.386-12.056,7.216.017a38.64,38.64,0,0,1,5.1,15.518ZM63.466,17.2l2.258,6.9L55.3,31.047,44.881,24.1l2.258-6.9a38.534,38.534,0,0,1,16.327,0ZM42.1,18.681l-1.457,4.453-11.4,8.283-4.674.011A39.081,39.081,0,0,1,42.1,18.681ZM26.324,81.261l2.208-6.85,12.514.5L45.394,86.66,39.531,90.9A39.067,39.067,0,0,1,26.324,81.261ZM44.439,92.693l3.815-2.758H62.348l3.815,2.758a38.32,38.32,0,0,1-21.724,0ZM71.071,90.9l-5.863-4.239,4.347-11.744,12.514-.5,2.208,6.85A39.125,39.125,0,0,1,71.071,90.9Z" transform="translate(8.699 8.699)" fill="#fff"/>
    <rect id="Rectángulo_551" data-name="Rectángulo 551" width="3" height="4" transform="translate(62 1)" fill="#fff"/>
    <rect id="Rectángulo_552" data-name="Rectángulo 552" width="3.582" height="3.582" transform="matrix(0.966, -0.259, 0.259, 0.966, 2.428, 78.589)" fill="#fff"/>
    <rect id="Rectángulo_553" data-name="Rectángulo 553" width="3.582" height="3.582" transform="translate(7.541 93.999) rotate(-29.993)" fill="#fff"/>
    <rect id="Rectángulo_554" data-name="Rectángulo 554" width="3.582" height="3.582" transform="matrix(0.707, -0.707, 0.707, 0.707, 15.995, 109.463)" fill="#fff"/>
    <rect id="Rectángulo_555" data-name="Rectángulo 555" width="3.582" height="3.582" transform="translate(30.906 118.658) rotate(-60.007)" fill="#fff"/>
    <rect id="Rectángulo_556" data-name="Rectángulo 556" width="3.582" height="3.582" transform="matrix(0.259, -0.966, 0.966, 0.259, 45.952, 124.631)" fill="#fff"/>
    <rect id="Rectángulo_557" data-name="Rectángulo 557" width="3" height="4" transform="translate(62 123)" fill="#fff"/>
    <rect id="Rectángulo_558" data-name="Rectángulo 558" width="3.582" height="3.582" transform="matrix(0.966, -0.259, 0.259, 0.966, 121.182, 46.877)" fill="#fff"/>
    <rect id="Rectángulo_559" data-name="Rectángulo 559" width="3.582" height="3.582" transform="translate(115.566 32.697) rotate(-29.993)" fill="#fff"/>
    <rect id="Rectángulo_560" data-name="Rectángulo 560" width="3.582" height="3.582" transform="matrix(0.707, -0.707, 0.707, 0.707, 106.939, 18.524)" fill="#fff"/>
    <rect id="Rectángulo_561" data-name="Rectángulo 561" width="3.582" height="3.582" transform="translate(92.203 10.641) rotate(-60.007)" fill="#fff"/>
    <rect id="Rectángulo_562" data-name="Rectángulo 562" width="3.582" height="3.582" transform="matrix(0.259, -0.966, 0.966, 0.259, 77.66, 5.884)" fill="#fff"/>
  </g>
</svg>
