<svg xmlns="http://www.w3.org/2000/svg" width="89.031" height="125.2" viewBox="0 0 89.031 125.2">
  <path id="Trazado_2226" data-name="Trazado 2226" d="M50.427,56.165a2.17,2.17,0,0,0-3.047,0L45.822,57.7l-1.516-1.53a2.17,2.17,0,0,0-3.047,0,2.142,2.142,0,0,0,0,3.047l1.516,1.53-1.516,1.516a2.142,2.142,0,0,0,0,3.047,2.1,2.1,0,0,0,1.516.64,2.142,2.142,0,0,0,1.53-.64l1.516-1.516,1.53,1.516a2.128,2.128,0,0,0,3.047,0,2.17,2.17,0,0,0,0-3.047l-1.53-1.516,1.53-1.53A2.17,2.17,0,0,0,50.427,56.165ZM47,80.412a2.142,2.142,0,0,0-3.047,0l-1.516,1.516-1.53-1.516a2.142,2.142,0,0,0-3.047,0,2.17,2.17,0,0,0,0,3.047l1.53,1.516-1.53,1.53a2.156,2.156,0,0,0,3.047,3.047l1.53-1.53,1.516,1.53a2.184,2.184,0,0,0,1.53.626A2.156,2.156,0,0,0,47,86.505l-1.516-1.53L47,83.459a2.142,2.142,0,0,0,0-3.047Zm32.2-16.624L80.725,65.3a2.142,2.142,0,0,0,1.53.64,2.1,2.1,0,0,0,1.516-.64,2.142,2.142,0,0,0,0-3.047l-1.516-1.516,1.488-1.488a2.142,2.142,0,0,0,0-3.047,2.17,2.17,0,0,0-3.047,0L79.209,57.7l-1.53-1.53A2.179,2.179,0,1,0,74.6,59.253l1.53,1.53L74.6,62.3a2.17,2.17,0,0,0,0,3.047,2.128,2.128,0,0,0,3.047,0ZM67.092,69.13a2.17,2.17,0,0,0-3.047,0l-1.53,1.53-1.53-1.53a2.156,2.156,0,0,0-3.047,3.047l1.53,1.53-1.53,1.516a2.17,2.17,0,0,0,0,3.047,2.142,2.142,0,0,0,1.53.64,2.087,2.087,0,0,0,1.516-.64l1.53-1.516,1.53,1.516a2.087,2.087,0,0,0,1.516.64,2.142,2.142,0,0,0,1.53-.64,2.17,2.17,0,0,0,0-3.047l-1.53-1.516,1.53-1.53a2.17,2.17,0,0,0,0-3.047Zm37.8-56.229H73.645V7.156A2.142,2.142,0,0,0,71.488,5H53.543a2.142,2.142,0,0,0-2.156,2.156V12.9H20.142A2.156,2.156,0,0,0,18,15.058V128.044a2.156,2.156,0,0,0,2.142,2.156h84.747a2.156,2.156,0,0,0,2.142-2.156V15.058a2.156,2.156,0,0,0-2.142-2.156ZM80.475,29.414a2.156,2.156,0,0,0,2.156-2.156V25.227h12.2v9.293H80.322a17.611,17.611,0,0,0-1.391-5.105Zm3.589,69.069H77.387a16.513,16.513,0,0,0-29.742,0H40.967a2.156,2.156,0,0,0-2.1,2.156v17.236H30.2V38.832H44.7a17.945,17.945,0,0,0,35.64,0h14.5v79.043H86.165V100.639a2.156,2.156,0,0,0-2.1-2.156ZM81.908,102.8v15.08H43.124V102.8ZM52.694,98.483a12.2,12.2,0,0,1,19.726,0ZM49.077,34.492A13.911,13.911,0,0,1,51,29.386H74.076A13.911,13.911,0,0,1,76,34.492ZM76.009,38.8a13.619,13.619,0,0,1-26.9,0ZM55.7,9.312H69.332V12.9H55.7Zm-8.987,7.9H78.319v7.9H46.713Zm-2.156,12.2H46.1a17.612,17.612,0,0,0-1.391,5.105H30.2V25.227H42.4v2.031a2.156,2.156,0,0,0,2.156,2.156Zm58.176,96.474H22.3V17.214H42.4v3.7H28.044a2.156,2.156,0,0,0-2.156,2.17v96.961a2.156,2.156,0,0,0,2.156,2.156H96.987a2.156,2.156,0,0,0,2.156-2.156V23.084a2.156,2.156,0,0,0-2.156-2.156H82.631V17.214h20.1ZM87.166,86.505l-1.53-1.53,1.53-1.516a2.17,2.17,0,0,0,0-3.047,2.142,2.142,0,0,0-3.047,0l-1.53,1.516-1.516-1.516a2.156,2.156,0,0,0-3.047,3.047l1.516,1.516-1.516,1.53a2.156,2.156,0,0,0,1.516,3.673,2.184,2.184,0,0,0,1.53-.626l1.517-1.53,1.53,1.53a2.154,2.154,0,0,0,3.047-3.047Z" transform="translate(-18 -5)" fill="#fff"/>
</svg>
