<svg xmlns="http://www.w3.org/2000/svg" width="95.888" height="114.997" viewBox="0 0 95.888 114.997">
  <g id="noun_soccer_167997" transform="translate(-14.911 -7.544)">
    <g id="Grupo_738" data-name="Grupo 738" transform="translate(14.911 7.544)">
      <ellipse id="Elipse_106" data-name="Elipse 106" cx="10.534" cy="7.251" rx="10.534" ry="7.251" transform="translate(73.144 2.708) rotate(100.76)" fill="#fff"/>
      <path id="Trazado_2219" data-name="Trazado 2219" d="M105.69,49.594,66.426,23.6h0L26.887,37.281a4.309,4.309,0,0,0-2.736,2.6,3.953,3.953,0,0,0,2.6,4.925,3.8,3.8,0,0,0,2.463,0l26.268-9.029,3.694,14.639,18.743,12.45V40.7l23.258,15.46a4.612,4.612,0,0,0,2.326.684,3.97,3.97,0,0,0,3.967-3.967A4.03,4.03,0,0,0,105.69,49.594Z" transform="translate(-11.58 -1.634)" fill="#fff"/>
      <path id="Trazado_2220" data-name="Trazado 2220" d="M60.214,77.4a9.714,9.714,0,1,0,9.714,9.714A9.751,9.751,0,0,0,60.214,77.4Z" transform="translate(-1.811 18.17)" fill="#fff"/>
      <path id="Trazado_2221" data-name="Trazado 2221" d="M105.738,99.951,95.477,71.495h0a5.475,5.475,0,0,0-2.052-2.6L62.1,48.1,45.815,72.589,22.557,61.644l-1.231-.41a5.319,5.319,0,0,0-3.42,9.987h.137l27.088,12.86h0a6.445,6.445,0,0,0,2.326.547A5.439,5.439,0,0,0,51.835,82.3h0l13-19.564L86.174,76.693s9.85,27.5,10.124,27.772a5.312,5.312,0,0,0,7.388,1.5,5.02,5.02,0,0,0,2.052-6.02Z" transform="translate(-14.911 7.385)" fill="#fff"/>
    </g>
  </g>
</svg>
