<svg xmlns="http://www.w3.org/2000/svg" width="621.52" height="280.844" viewBox="0 0 621.52 280.844">
  <path id="Trazado_2180" data-name="Trazado 2180" d="M330.94,295.285,355.6,267.924a7.182,7.182,0,1,0-10.809-9.458l-23.645,26.348L297.5,258.465a7.181,7.181,0,1,0-10.809,9.458l24.658,27.361L286.69,322.646a7.056,7.056,0,0,0,.675,10.134,6.323,6.323,0,0,0,4.729,1.689,7.2,7.2,0,0,0,5.4-2.364l23.645-26.348L344.79,332.1a6.721,6.721,0,0,0,5.4,2.364,8.072,8.072,0,0,0,4.729-1.689,7.365,7.365,0,0,0,.675-10.134Z" transform="matrix(0.966, -0.259, 0.259, 0.966, 4.122, -107.558)"/>
  <g id="Grupo_736" data-name="Grupo 736" transform="translate(-821.829 -8900.328)">
    <path id="Trazado_1871" data-name="Trazado 1871" d="M41.041,0S85.789,73.386,80.427,159.175,0,323.6,0,323.6" transform="translate(1296.224 9055.867) rotate(91)" fill="none" stroke="#000" stroke-linecap="round" stroke-width="8" stroke-dasharray="16"/>
    <g id="Trazado_1872" data-name="Trazado 1872" transform="translate(821.829 8900.328)" fill="none">
      <path d="M74.867,0A74.867,74.867,0,1,1,0,74.867,74.867,74.867,0,0,1,74.867,0Z" stroke="none"/>
      <path d="M 74.86733245849609 12 C 40.20217895507813 12 11.99998474121094 40.20215606689453 11.99998474121094 74.8673095703125 C 11.99998474121094 109.532470703125 40.20217895507813 137.734619140625 74.86733245849609 137.734619140625 C 109.5324859619141 137.734619140625 137.7346801757813 109.532470703125 137.7346801757813 74.8673095703125 C 137.7346801757813 40.20215606689453 109.5324859619141 12 74.86733245849609 12 M 74.86733245849609 0 C 116.2153930664063 0 149.7346801757813 33.51924896240234 149.7346801757813 74.8673095703125 C 149.7346801757813 116.2153701782227 116.2153930664063 149.734619140625 74.86733245849609 149.734619140625 C 33.51924133300781 149.734619140625 -1.52587890625e-05 116.2153701782227 -1.52587890625e-05 74.8673095703125 C -1.52587890625e-05 33.51924896240234 33.51924133300781 0 74.86733245849609 0 Z" stroke="none"/>
    </g>
    <g id="Trazado_1874" data-name="Trazado 1874" transform="translate(1360.362 8972.272)" fill="none">
      <path d="M41.493,0A41.493,41.493,0,1,1,0,41.493,41.493,41.493,0,0,1,41.493,0Z" stroke="none"/>
      <path d="M 41.49337387084961 9.999992370605469 C 24.12787246704102 9.999992370605469 10 24.12786483764648 10 41.49336624145508 C 10 58.85886383056641 24.12787246704102 72.98674011230469 41.49337387084961 72.98674011230469 C 58.85887145996094 72.98674011230469 72.98674774169922 58.85886383056641 72.98674774169922 41.49336624145508 C 72.98674774169922 24.12786483764648 58.85887145996094 9.999992370605469 41.49337387084961 9.999992370605469 M 41.49337387084961 -7.62939453125e-06 C 64.40951538085938 -7.62939453125e-06 82.98674774169922 18.57720184326172 82.98674774169922 41.49336624145508 C 82.98674774169922 64.40951538085938 64.40951538085938 82.98674011230469 41.49337387084961 82.98674011230469 C 18.57720947265625 82.98674011230469 0 64.40951538085938 0 41.49336624145508 C 0 18.57720184326172 18.57720947265625 -7.62939453125e-06 41.49337387084961 -7.62939453125e-06 Z" stroke="none"/>
    </g>
    <path id="Trazado_1873" data-name="Trazado 1873" d="M1186.287,9024.848s51.117-.009,55.765,30.2-55.765,92.94-55.765,92.94" transform="translate(89.013 30.412)" fill="none" stroke="#000" stroke-width="8" stroke-dasharray="16"/>
  </g>
</svg>
