<svg xmlns="http://www.w3.org/2000/svg" width="246" height="216" viewBox="0 0 246 216">
  <g id="Grupo_685" data-name="Grupo 685" transform="translate(-1711.866 -1043)">
    <circle id="Elipse_73" data-name="Elipse 73" cx="10.5" cy="10.5" r="10.5" transform="translate(1711.866 1043)" fill="#fee5e8"/>
    <circle id="Elipse_82" data-name="Elipse 82" cx="10.5" cy="10.5" r="10.5" transform="translate(1711.866 1091)" fill="#fee5e8"/>
    <circle id="Elipse_87" data-name="Elipse 87" cx="10.5" cy="10.5" r="10.5" transform="translate(1711.866 1139)" fill="#fee5e8"/>
    <circle id="Elipse_92" data-name="Elipse 92" cx="10.5" cy="10.5" r="10.5" transform="translate(1711.866 1190)" fill="#fee5e8"/>
    <circle id="Elipse_97" data-name="Elipse 97" cx="10.5" cy="10.5" r="10.5" transform="translate(1711.866 1238)" fill="#fee5e8"/>
    <circle id="Elipse_74" data-name="Elipse 74" cx="10.5" cy="10.5" r="10.5" transform="translate(1767.866 1043)" fill="#fee5e8"/>
    <circle id="Elipse_81" data-name="Elipse 81" cx="10.5" cy="10.5" r="10.5" transform="translate(1767.866 1091)" fill="#fee5e8"/>
    <circle id="Elipse_86" data-name="Elipse 86" cx="10.5" cy="10.5" r="10.5" transform="translate(1767.866 1139)" fill="#fee5e8"/>
    <circle id="Elipse_91" data-name="Elipse 91" cx="10.5" cy="10.5" r="10.5" transform="translate(1767.866 1190)" fill="#fee5e8"/>
    <circle id="Elipse_96" data-name="Elipse 96" cx="10.5" cy="10.5" r="10.5" transform="translate(1767.866 1238)" fill="#fee5e8"/>
    <ellipse id="Elipse_75" data-name="Elipse 75" cx="10" cy="10.5" rx="10" ry="10.5" transform="translate(1824.866 1043)" fill="#fee5e8"/>
    <ellipse id="Elipse_80" data-name="Elipse 80" cx="10" cy="10.5" rx="10" ry="10.5" transform="translate(1824.866 1091)" fill="#fee5e8"/>
    <ellipse id="Elipse_85" data-name="Elipse 85" cx="10" cy="10.5" rx="10" ry="10.5" transform="translate(1824.866 1139)" fill="#fee5e8"/>
    <ellipse id="Elipse_90" data-name="Elipse 90" cx="10" cy="10.5" rx="10" ry="10.5" transform="translate(1824.866 1190)" fill="#fee5e8"/>
    <ellipse id="Elipse_95" data-name="Elipse 95" cx="10" cy="10.5" rx="10" ry="10.5" transform="translate(1824.866 1238)" fill="#fee5e8"/>
    <circle id="Elipse_76" data-name="Elipse 76" cx="10.5" cy="10.5" r="10.5" transform="translate(1880.866 1043)" fill="#fee5e8"/>
    <circle id="Elipse_79" data-name="Elipse 79" cx="10.5" cy="10.5" r="10.5" transform="translate(1880.866 1091)" fill="#fee5e8"/>
    <circle id="Elipse_84" data-name="Elipse 84" cx="10.5" cy="10.5" r="10.5" transform="translate(1880.866 1139)" fill="#fee5e8"/>
    <circle id="Elipse_89" data-name="Elipse 89" cx="10.5" cy="10.5" r="10.5" transform="translate(1880.866 1190)" fill="#fee5e8"/>
    <circle id="Elipse_94" data-name="Elipse 94" cx="10.5" cy="10.5" r="10.5" transform="translate(1880.866 1238)" fill="#fee5e8"/>
    <circle id="Elipse_77" data-name="Elipse 77" cx="10.5" cy="10.5" r="10.5" transform="translate(1936.866 1043)" fill="#fee5e8"/>
    <circle id="Elipse_78" data-name="Elipse 78" cx="10.5" cy="10.5" r="10.5" transform="translate(1936.866 1091)" fill="#fee5e8"/>
    <circle id="Elipse_83" data-name="Elipse 83" cx="10.5" cy="10.5" r="10.5" transform="translate(1936.866 1139)" fill="#fee5e8"/>
    <circle id="Elipse_88" data-name="Elipse 88" cx="10.5" cy="10.5" r="10.5" transform="translate(1936.866 1190)" fill="#fee5e8"/>
    <circle id="Elipse_93" data-name="Elipse 93" cx="10.5" cy="10.5" r="10.5" transform="translate(1936.866 1238)" fill="#fee5e8"/>
  </g>
</svg>
