<svg xmlns="http://www.w3.org/2000/svg" width="499.52" height="226.261" viewBox="0 0 499.52 226.261">
  <g id="Grupo_681" data-name="Grupo 681" transform="translate(-821.829 -8900.328)">
    <path id="Trazado_1871" data-name="Trazado 1871" d="M140,2325.519s35.965,58.981,31.655,127.93-64.64,132.153-64.64,132.153" transform="translate(3530.136 8958.923) rotate(91)" fill="none" stroke="#ff0313" stroke-linecap="round" stroke-width="8" stroke-dasharray="16"/>
    <g id="Trazado_1872" data-name="Trazado 1872" transform="translate(821.829 8900.328)" fill="none">
      <path d="M60.171,0A60.171,60.171,0,1,1,0,60.171,60.171,60.171,0,0,1,60.171,0Z" stroke="none"/>
      <path d="M 60.17138671875 12 C 33.60958099365234 12 12 33.60958099365234 12 60.17138671875 C 12 86.73319244384766 33.60958099365234 108.3427734375 60.17138671875 108.3427734375 C 86.73319244384766 108.3427734375 108.3427734375 86.73319244384766 108.3427734375 60.17138671875 C 108.3427734375 33.60958099365234 86.73319244384766 12 60.17138671875 12 M 60.17138671875 0 C 93.40310668945313 0 120.3427734375 26.93963623046875 120.3427734375 60.17138671875 C 120.3427734375 93.40310668945313 93.40310668945313 120.3427734375 60.17138671875 120.3427734375 C 26.93963623046875 120.3427734375 0 93.40310668945313 0 60.17138671875 C 0 26.93963623046875 26.93963623046875 0 60.17138671875 0 Z" stroke="none" fill="#ff0313"/>
    </g>
    <g id="Trazado_1874" data-name="Trazado 1874" transform="translate(1254.651 8958.15)" fill="none">
      <path d="M33.349,0A33.349,33.349,0,1,1,0,33.349,33.349,33.349,0,0,1,33.349,0Z" stroke="none"/>
      <path d="M 33.3485107421875 10 C 20.47409439086914 10 10 20.47409439086914 10 33.3485107421875 C 10 46.22293090820313 20.47409439086914 56.697021484375 33.3485107421875 56.697021484375 C 46.22293090820313 56.697021484375 56.697021484375 46.22293090820313 56.697021484375 33.3485107421875 C 56.697021484375 20.47409439086914 46.22293090820313 10 33.3485107421875 10 M 33.3485107421875 0 C 51.76638412475586 0 66.697021484375 14.93063735961914 66.697021484375 33.3485107421875 C 66.697021484375 51.76638412475586 51.76638412475586 66.697021484375 33.3485107421875 66.697021484375 C 14.93063735961914 66.697021484375 0 51.76638412475586 0 33.3485107421875 C 0 14.93063735961914 14.93063735961914 0 33.3485107421875 0 Z" stroke="none" fill="#ff0313"/>
    </g>
    <path id="Trazado_1873" data-name="Trazado 1873" d="M1186.287,9024.848s41.083-.007,44.818,24.27-44.818,74.7-44.818,74.7" fill="none" stroke="#ff0313" stroke-width="8" stroke-dasharray="16"/>
  </g>
</svg>
