<svg xmlns="http://www.w3.org/2000/svg" xmlns:xlink="http://www.w3.org/1999/xlink" width="474.926" height="407.66" viewBox="0 0 474.926 407.66">
  <defs>
    <linearGradient id="linear-gradient" x1="0.5" x2="0.5" y2="1" gradientUnits="objectBoundingBox">
      <stop offset="0" stop-color="#ebb843"/>
      <stop offset="0.529" stop-color="#ffd609"/>
      <stop offset="1" stop-color="#e9a817"/>
    </linearGradient>
  </defs>
  <g id="Grupo_937" data-name="Grupo 937" transform="translate(0)">
    <path id="Trazado_2583" data-name="Trazado 2583" d="M273.008,288.077h0a47.118,47.118,0,0,1,58.837,15.766h0a47.128,47.128,0,0,0,34.839,20.114h0a47.123,47.123,0,0,1,43.074,43.074h0a47.124,47.124,0,0,0,20.114,34.839h0a47.119,47.119,0,0,1,15.766,58.839h0a47.118,47.118,0,0,0,0,40.228h0a47.119,47.119,0,0,1-15.766,58.839h0a47.128,47.128,0,0,0-20.114,34.84h0a47.123,47.123,0,0,1-43.074,43.073h0A47.128,47.128,0,0,0,331.845,657.8h0a47.116,47.116,0,0,1-58.837,15.766h0a47.123,47.123,0,0,0-40.23,0h0a47.119,47.119,0,0,1-58.84-15.766h0A47.12,47.12,0,0,0,139.1,637.689h0a47.118,47.118,0,0,1-43.071-43.073h0a47.124,47.124,0,0,0-20.116-34.84h0a47.121,47.121,0,0,1-15.766-58.839h0a47.118,47.118,0,0,0,0-40.228h0a47.121,47.121,0,0,1,15.766-58.839h0A47.12,47.12,0,0,0,96.028,367.03h0A47.118,47.118,0,0,1,139.1,323.957h0a47.12,47.12,0,0,0,34.839-20.114h0a47.121,47.121,0,0,1,58.84-15.766h0A47.122,47.122,0,0,0,273.008,288.077Z" transform="translate(-15.43 -276.992)" fill="#e9b233"/>
    <g id="Grupo_930" data-name="Grupo 930" transform="translate(0 158.266)">
      <path id="Trazado_2584" data-name="Trazado 2584" d="M334.162,448.144H180.425V350.935H334.162l-18.79,48.6Z" transform="translate(140.764 -350.935)" fill="#2b2b2b"/>
      <path id="Trazado_2585" data-name="Trazado 2585" d="M183.6,437.035V354.106h136.18l-16.029,41.463,16.029,41.465Z" transform="translate(144.734 -346.966)" fill="none" stroke="#e9b233" stroke-miterlimit="10" stroke-width="1"/>
      <path id="Trazado_2586" data-name="Trazado 2586" d="M37.778,350.935H191.514v97.209H37.778l18.79-48.6Z" transform="translate(-37.778 -350.935)" fill="#2b2b2b"/>
      <path id="Trazado_2587" data-name="Trazado 2587" d="M42.4,437.035l16.029-41.465L42.4,354.106H178.583v82.928Z" transform="translate(-31.987 -346.966)" fill="none" stroke="#e9b233" stroke-miterlimit="10" stroke-width="1"/>
    </g>
    <ellipse id="Elipse_172" data-name="Elipse 172" cx="176.238" cy="176.239" rx="176.238" ry="176.239" transform="translate(36.174 350.809) rotate(-81.137)" fill="#c9c0b6" style="mix-blend-mode: multiply;isolation: isolate"/>
    <ellipse id="Elipse_173" data-name="Elipse 173" cx="170.729" cy="170.729" rx="170.729" ry="170.729" transform="translate(33.632 333.252) rotate(-77.414)" fill="#e9b233"/>
    <ellipse id="Elipse_174" data-name="Elipse 174" cx="168.333" cy="168.333" rx="168.333" ry="168.333" transform="translate(36.491 331.431) rotate(-77.412)" fill="#2b2b2b"/>
    <path id="Trazado_2743" data-name="Trazado 2743" d="M155.849,0A155.849,155.849,0,1,1,0,155.849,155.849,155.849,0,0,1,155.849,0Z" transform="translate(59.448 333.786) rotate(-81.13)" fill="url(#linear-gradient)"/>
    <ellipse id="Elipse_176" data-name="Elipse 176" cx="108.247" cy="108.247" rx="108.247" ry="108.247" transform="translate(108.177 285.805) rotate(-77.377)" fill="#c9c0b6" style="mix-blend-mode: multiply;isolation: isolate"/>
    <ellipse id="Elipse_177" data-name="Elipse 177" cx="101.465" cy="101.465" rx="101.465" ry="101.465" transform="translate(103.211 153.168) rotate(-24.325)" fill="#2b2b2b"/>
    <text id="_100_" data-name="100%" transform="translate(245.294 231.751)" fill="#fff" font-size="86" font-family="Montserrat-Bold, Montserrat" font-weight="700" letter-spacing="-0.075em" style="mix-blend-mode: multiply;isolation: isolate"><tspan x="-103.286" y="0">100%</tspan></text>
    <g id="Grupo_933" data-name="Grupo 933" transform="translate(120.718 65.146)">
      <g id="Grupo_932" data-name="Grupo 932">
        <g id="Grupo_931" data-name="Grupo 931">
          <path id="Trazado_2588" data-name="Trazado 2588" d="M96.081,342.505a1.892,1.892,0,0,0,.838,1.484,1.742,1.742,0,0,0,1.756.173,16.259,16.259,0,0,0,3.454-2.531,11.549,11.549,0,0,1,4.758-2.677,5.681,5.681,0,0,1,4.692,1.189,5.913,5.913,0,0,1,2.6,4.629,9.087,9.087,0,0,1-1.95,5.9,13.848,13.848,0,0,1-8.721,5.532l-1.193-4.508q4.644-1.131,6.428-3.632a3.534,3.534,0,0,0,.781-2.1,1.866,1.866,0,0,0-.826-1.554,1.831,1.831,0,0,0-1.768-.239,10.972,10.972,0,0,0-2.878,1.993,14.439,14.439,0,0,1-5.258,3.269,5.575,5.575,0,0,1-4.8-1.207,5.664,5.664,0,0,1-2.607-4.674,9.328,9.328,0,0,1,1.936-5.638,13.9,13.9,0,0,1,3.22-3.2,11.985,11.985,0,0,1,4.015-1.934l1.455,4.148a9.942,9.942,0,0,0-5.269,3.632A3.059,3.059,0,0,0,96.081,342.505Z" transform="translate(-91.391 -280.532)" fill="#2b2b2b"/>
          <path id="Trazado_2589" data-name="Trazado 2589" d="M121.247,338.567l-4.778-2.04-6.827,6.431,1.747,4.891-3.868,3.643-8.068-22.669,3.519-3.312,22.143,9.412Zm-15.527-6.64,2.335,6.591,4.078-3.839Z" transform="translate(-81.3 -289.637)" fill="#2b2b2b"/>
          <path id="Trazado_2590" data-name="Trazado 2590" d="M117.412,324.377l9.608,14.96-4.2,2.7-9.608-14.958-5.332,3.425-2.3-3.582,14.865-9.547,2.3,3.58Z" transform="translate(-73.633 -299.823)" fill="#2b2b2b"/>
          <path id="Trazado_2591" data-name="Trazado 2591" d="M115.2,317.1l4.53-2.092,9.245,20-4.533,2.094Z" transform="translate(-61.588 -302.78)" fill="#2b2b2b"/>
          <path id="Trazado_2592" data-name="Trazado 2592" d="M126.877,317.859a1.892,1.892,0,0,0-.239,1.687,1.742,1.742,0,0,0,1.288,1.207,16.276,16.276,0,0,0,4.278.095,11.556,11.556,0,0,1,5.406.777,5.677,5.677,0,0,1,3,3.8,5.913,5.913,0,0,1-.759,5.258,9.075,9.075,0,0,1-5.14,3.495,13.846,13.846,0,0,1-10.285-.919l1.8-4.305q4.367,1.932,7.307,1.036a3.555,3.555,0,0,0,1.9-1.187,1.863,1.863,0,0,0,.29-1.738,1.827,1.827,0,0,0-1.256-1.265,11.052,11.052,0,0,0-3.5-.169,14.466,14.466,0,0,1-6.16-.61,5.583,5.583,0,0,1-3.071-3.877,5.674,5.674,0,0,1,.779-5.294,9.308,9.308,0,0,1,4.969-3.294,13.9,13.9,0,0,1,4.508-.583,12.068,12.068,0,0,1,4.359.912l-1.371,4.177a9.94,9.94,0,0,0-6.39-.329A3.058,3.058,0,0,0,126.877,317.859Z" transform="translate(-53.81 -306.597)" fill="#2b2b2b"/>
          <path id="Trazado_2593" data-name="Trazado 2593" d="M146.923,309.668l.561,4.28L137.2,315.293l.617,4.722,9.774-1.279.561,4.283-9.777,1.277,1.121,8.565-4.951.649-2.857-21.85Z" transform="translate(-40.955 -309.465)" fill="#2b2b2b"/>
          <path id="Trazado_2594" data-name="Trazado 2594" d="M158.949,331.9l-1.925-4.825-9.371-.3-2.236,4.69-5.309-.171,10.375-21.71,4.83.155,8.946,22.336ZM152.7,316.209l-3.022,6.3,5.6.182Z" transform="translate(-30.418 -309.578)" fill="#2b2b2b"/>
          <path id="Trazado_2595" data-name="Trazado 2595" d="M162.8,329a7.412,7.412,0,0,0,6.494-1.513l2.429,3.857a12.2,12.2,0,0,1-17.3-2.763,11.521,11.521,0,0,1,3.553-15.905,11.586,11.586,0,0,1,8.849-1.416,11.907,11.907,0,0,1,8.119,6.01l-3.776,2.722a7.31,7.31,0,0,0-5.131-4.093,6.917,6.917,0,0,0-5.1.739,6.266,6.266,0,0,0-3,4.341,6.611,6.611,0,0,0,.788,5.226A6.289,6.289,0,0,0,162.8,329Z" transform="translate(-14.793 -307.87)" fill="#2b2b2b"/>
          <path id="Trazado_2596" data-name="Trazado 2596" d="M175.878,321.356l-6.771,16.435-4.618-1.9,6.773-16.437L165.4,317.04l1.621-3.936,16.336,6.73-1.621,3.936Z" transform="translate(0.1 -305.165)" fill="#2b2b2b"/>
          <path id="Trazado_2597" data-name="Trazado 2597" d="M181.915,317.727l4.316,2.508-11.067,19.053-4.316-2.508Z" transform="translate(8.059 -299.379)" fill="#2b2b2b"/>
          <path id="Trazado_2598" data-name="Trazado 2598" d="M189.516,345.931a12.325,12.325,0,0,1-12.692-10.866,11.4,11.4,0,0,1,10.558-12.33A12.321,12.321,0,0,1,200.074,333.6a11.4,11.4,0,0,1-10.558,12.332Zm3.981-7.257a7.136,7.136,0,0,0,1.81-5.068,6.4,6.4,0,0,0-7.174-6.142,7.17,7.17,0,0,0-4.728,2.571,7.093,7.093,0,0,0-1.8,5.057,6.429,6.429,0,0,0,7.174,6.14A7.087,7.087,0,0,0,193.5,338.674Z" transform="translate(15.467 -293.137)" fill="#2b2b2b"/>
          <path id="Trazado_2599" data-name="Trazado 2599" d="M210.936,344.381l2.7,4.2-18.524,11.931-2.7-4.2,5.834-16.439-11.6,7.48-2.7-4.2,18.522-11.931,2.531,3.929-5.978,16.91Z" transform="translate(24.441 -282.484)" fill="#2b2b2b"/>
        </g>
      </g>
    </g>
    <g id="Grupo_936" data-name="Grupo 936" transform="translate(149.94 291.121)">
      <g id="Grupo_935" data-name="Grupo 935">
        <g id="Grupo_934" data-name="Grupo 934">
          <path id="Trazado_2600" data-name="Trazado 2600" d="M121.735,429.776l2.616,2-5.6,7.325a12.776,12.776,0,0,1-4.65-.748,15.718,15.718,0,0,1-4.4-2.38,13.565,13.565,0,0,1-4.251-5.226,12.131,12.131,0,0,1,6.521-16.077,11.544,11.544,0,0,1,6.278-.644,13.872,13.872,0,0,1,6.187,2.772,14.108,14.108,0,0,1,3.591,3.913,10.663,10.663,0,0,1,1.524,4.587l-2.961.374a9.741,9.741,0,0,0-3.871-6.4,10.263,10.263,0,0,0-4.618-2.06,8.615,8.615,0,0,0-4.679.5,9.429,9.429,0,0,0-5.661,7.408,8.74,8.74,0,0,0,.734,4.663,10.051,10.051,0,0,0,3.166,3.9,10.313,10.313,0,0,0,5.39,2.209Z" transform="translate(-104.37 -405.04)" fill="#2b2b2b"/>
          <path id="Trazado_2601" data-name="Trazado 2601" d="M132.9,439.762,121.2,434.694l-4.771,4.373-3.242-1.4,19.375-17.374,3.114,1.351.608,26.027-3.3-1.432Zm-.027-2.954-.146-12.69-9.358,8.574Z" transform="translate(-93.337 -396.984)" fill="#2b2b2b"/>
          <path id="Trazado_2602" data-name="Trazado 2602" d="M142.846,449.393l-3.67-8.131c-.635-.079-1.135-.155-1.493-.225l-5.82-1.153-1.4,7.059-3.364-.666,4.591-23.192,9.182,1.817a11.234,11.234,0,0,1,6.775,3.578,7.406,7.406,0,0,1,1.45,6.451,7.44,7.44,0,0,1-6.631,6.3l4.044,8.889Zm.441-11.585a4.786,4.786,0,0,0,2.448-3.544,4.738,4.738,0,0,0-.916-4.193,7.823,7.823,0,0,0-4.614-2.308l-5.719-1.133-2.065,10.439,5.719,1.13A7.758,7.758,0,0,0,143.288,437.808Z" transform="translate(-75.916 -393.485)" fill="#2b2b2b"/>
          <path id="Trazado_2603" data-name="Trazado 2603" d="M157.392,442.62l-12.758.036-2.623,5.92-3.533.009,10.806-23.674,3.4-.009,10.97,23.613-3.6.011Zm-1.207-2.7-5.213-11.569-5.145,11.6Z" transform="translate(-61.679 -391.211)" fill="#2b2b2b"/>
          <path id="Trazado_2604" data-name="Trazado 2604" d="M171.383,422.719l4.915,23.124-2.751.585L155.793,432.18l3.666,17.243-3.353.714-4.918-23.126,2.751-.583,17.754,14.248-3.666-17.243Z" transform="translate(-45.77 -393.943)" fill="#2b2b2b"/>
          <path id="Trazado_2605" data-name="Trazado 2605" d="M170.471,426.023l-7.545,3.292-1.175-2.693,18.2-7.937,1.175,2.691-7.545,3.292,8.279,18.977L178.745,445Z" transform="translate(-32.551 -398.992)" fill="#2b2b2b"/>
          <path id="Trazado_2606" data-name="Trazado 2606" d="M171.344,418.6l2.907-1.821,12.562,20.028-2.9,1.822Z" transform="translate(-20.543 -401.375)" fill="#2b2b2b"/>
          <path id="Trazado_2607" data-name="Trazado 2607" d="M202.216,424.9l1.981,2.171-12.864,11.751L175.39,421.366,187.9,409.939l1.981,2.168-9.977,9.115,4.9,5.361,8.889-8.117,1.934,2.119-8.887,8.117,5.149,5.636Z" transform="translate(-15.479 -409.939)" fill="#2b2b2b"/>
        </g>
      </g>
    </g>
    <path id="Trazado_2608" data-name="Trazado 2608" d="M222.84,375.1l10.537-.247,3.491-9.945,3.491,9.945,10.538.247-8.38,6.394,3.021,10.1-8.67-5.994L228.2,391.6l3.021-10.1Z" transform="translate(193.852 -175.174)" fill="#e9b233"/>
    <path id="Trazado_2609" data-name="Trazado 2609" d="M51.2,375.1l10.537-.247,3.491-9.945,3.491,9.945,10.537.247L70.88,381.5,73.9,391.6l-8.67-5.994-8.67,5.994,3.021-10.1Z" transform="translate(-20.974 -175.174)" fill="#e9b233"/>
  </g>
  <text id="_100_2" data-name="100%" transform="translate(237.926 232.305)" fill="#e9b233" font-size="73" font-family="SegoeUI-Bold, Segoe UI" font-weight="700"><tspan x="-94.636" y="0">100%</tspan></text>
</svg>
