<svg xmlns="http://www.w3.org/2000/svg" width="443" height="430" viewBox="0 0 443 430">
  <g id="Grupo_1007" data-name="Grupo 1007" transform="translate(-111 -1909)">
    <ellipse id="Elipse_103" data-name="Elipse 103" cx="221.5" cy="215" rx="221.5" ry="215" transform="translate(111 1909)" fill="#ff0313"/>
    <g id="Grupo_685" data-name="Grupo 685" transform="translate(-1510.606 938.471)">
      <circle id="Elipse_73" data-name="Elipse 73" cx="7" cy="7" r="7" transform="translate(1711.606 1042.529)" fill="#fff"/>
      <circle id="Elipse_82" data-name="Elipse 82" cx="7" cy="7" r="7" transform="translate(1711.606 1074.529)" fill="#fff"/>
      <circle id="Elipse_87" data-name="Elipse 87" cx="7" cy="7" r="7" transform="translate(1711.606 1106.529)" fill="#fff"/>
      <circle id="Elipse_92" data-name="Elipse 92" cx="7" cy="7" r="7" transform="translate(1711.606 1139.529)" fill="#fff"/>
      <circle id="Elipse_97" data-name="Elipse 97" cx="7" cy="7" r="7" transform="translate(1711.606 1171.529)" fill="#fff"/>
      <ellipse id="Elipse_74" data-name="Elipse 74" cx="6.5" cy="7" rx="6.5" ry="7" transform="translate(1749.606 1042.529)" fill="#fff"/>
      <ellipse id="Elipse_81" data-name="Elipse 81" cx="6.5" cy="7" rx="6.5" ry="7" transform="translate(1749.606 1074.529)" fill="#fff"/>
      <ellipse id="Elipse_86" data-name="Elipse 86" cx="6.5" cy="7" rx="6.5" ry="7" transform="translate(1749.606 1106.529)" fill="#fff"/>
      <ellipse id="Elipse_91" data-name="Elipse 91" cx="6.5" cy="7" rx="6.5" ry="7" transform="translate(1749.606 1139.529)" fill="#fff"/>
      <ellipse id="Elipse_96" data-name="Elipse 96" cx="6.5" cy="7" rx="6.5" ry="7" transform="translate(1749.606 1171.529)" fill="#fff"/>
      <circle id="Elipse_75" data-name="Elipse 75" cx="7" cy="7" r="7" transform="translate(1786.606 1042.529)" fill="#fff"/>
      <circle id="Elipse_80" data-name="Elipse 80" cx="7" cy="7" r="7" transform="translate(1786.606 1074.529)" fill="#fff"/>
      <circle id="Elipse_85" data-name="Elipse 85" cx="7" cy="7" r="7" transform="translate(1786.606 1106.529)" fill="#fff"/>
      <circle id="Elipse_90" data-name="Elipse 90" cx="7" cy="7" r="7" transform="translate(1786.606 1139.529)" fill="#fff"/>
      <circle id="Elipse_95" data-name="Elipse 95" cx="7" cy="7" r="7" transform="translate(1786.606 1171.529)" fill="#fff"/>
      <circle id="Elipse_76" data-name="Elipse 76" cx="7" cy="7" r="7" transform="translate(1823.606 1042.529)" fill="#fff"/>
      <circle id="Elipse_79" data-name="Elipse 79" cx="7" cy="7" r="7" transform="translate(1823.606 1074.529)" fill="#fff"/>
      <circle id="Elipse_84" data-name="Elipse 84" cx="7" cy="7" r="7" transform="translate(1823.606 1106.529)" fill="#fff"/>
      <circle id="Elipse_89" data-name="Elipse 89" cx="7" cy="7" r="7" transform="translate(1823.606 1139.529)" fill="#fff"/>
      <circle id="Elipse_94" data-name="Elipse 94" cx="7" cy="7" r="7" transform="translate(1823.606 1171.529)" fill="#fff"/>
      <circle id="Elipse_77" data-name="Elipse 77" cx="7" cy="7" r="7" transform="translate(1860.606 1042.529)" fill="#fff"/>
      <circle id="Elipse_78" data-name="Elipse 78" cx="7" cy="7" r="7" transform="translate(1860.606 1074.529)" fill="#fff"/>
      <circle id="Elipse_83" data-name="Elipse 83" cx="7" cy="7" r="7" transform="translate(1860.606 1106.529)" fill="#fff"/>
      <circle id="Elipse_88" data-name="Elipse 88" cx="7" cy="7" r="7" transform="translate(1860.606 1139.529)" fill="#fff"/>
      <circle id="Elipse_93" data-name="Elipse 93" cx="7" cy="7" r="7" transform="translate(1860.606 1171.529)" fill="#fff"/>
    </g>
  </g>
</svg>
