<svg xmlns="http://www.w3.org/2000/svg" width="1269.474" height="2810.82" viewBox="0 0 1269.474 2810.82">
  <g id="Trazado_2046" data-name="Trazado 2046" transform="translate(0 18.159)" fill="#0f1010">
    <path d="M 934.7633056640625 2792.1611328125 C 922.5628662109375 2792.161865234375 910.2551879882813 2791.768798828125 898.1817626953125 2790.993408203125 C 885.6256103515625 2790.187255859375 872.9717407226563 2788.944091796875 860.5717163085938 2787.299560546875 C 847.7040405273438 2785.592529296875 834.7498168945313 2783.4052734375 822.06787109375 2780.79833984375 C 808.9336547851563 2778.097900390625 795.7236328125 2774.871337890625 782.8048095703125 2771.208740234375 C 769.4483032226563 2767.421875 756.0278930664063 2763.062255859375 742.9163818359375 2758.250732421875 C 729.3821411132813 2753.28369140625 715.7967529296875 2747.69580078125 702.537109375 2741.642333984375 C 688.8698120117188 2735.40234375 675.1644287109375 2728.491455078125 661.8013305664063 2721.1025390625 C 648.0452270507813 2713.49609375 634.2651977539063 2705.16796875 620.84326171875 2696.350341796875 C 523.9086303710938 2632.665771484375 420.577880859375 2600.375 313.7209777832031 2600.375 C 291.7759704589844 2600.375 269.45751953125 2601.7626953125 247.3851928710938 2604.499267578125 C 227.3202056884766 2606.98681640625 207.0078887939453 2610.64501953125 187.0125122070313 2615.371826171875 C 153.3367309570313 2623.332275390625 119.9255828857422 2634.431884765625 87.70673370361328 2648.362548828125 C 75.04943084716797 2653.835205078125 62.54750442504883 2659.763671875 50.54904556274414 2665.98291015625 C 40.94942855834961 2670.958740234375 31.64866065979004 2676.130615234375 22.90442848205566 2681.355712890625 C 10.64014339447021 2688.68359375 2.897515296936035 2694.079833984375 0.5001984834671021 2695.790771484375 L 0.5001984834671021 76.41904449462891 C 1.978382229804993 75.45369720458984 10.71833610534668 69.81487274169922 25.18942832946777 61.84030151367188 C 34.49789047241211 56.7110710144043 44.32135391235352 51.63299179077148 54.38712310791016 46.74799346923828 C 66.96827697753906 40.64145660400391 79.96519470214844 34.82107162475586 93.01712036132813 29.44760894775391 C 126.2367401123047 15.77107048034668 160.0071258544922 4.874532222747803 193.3898162841797 -2.940083265304565 C 213.2082824707031 -7.57969856262207 233.1090393066406 -11.17008304595947 252.5390472412109 -13.61162185668945 C 273.9098205566406 -16.29739189147949 295.2394409179688 -17.6589298248291 315.9352111816406 -17.6589298248291 C 326.9609680175781 -17.6589298248291 338.0282897949219 -17.27239036560059 348.8305969238281 -16.50931358337402 C 360.0648193359375 -15.71623706817627 371.3259582519531 -14.49392986297607 382.3013610839844 -12.87662220001221 C 393.6909790039063 -11.19816017150879 405.0913391113281 -9.047390937805176 416.1867370605469 -6.48431396484375 C 427.6778869628906 -3.829314231872559 439.1640319824219 -0.6573910713195801 450.3259582519531 2.943378210067749 C 461.865966796875 6.666455268859863 473.3836669921875 10.95260906219482 484.5590515136719 15.68299388885498 C 496.0948181152344 20.56607055664063 507.5898132324219 26.05953216552734 518.7252197265625 32.01107025146484 C 530.2036743164063 38.14606857299805 541.6224975585938 44.93991851806641 552.6652221679688 52.20453262329102 C 564.0328979492188 59.6829948425293 575.3217163085938 67.87068939208984 586.21826171875 76.54029846191406 C 664.960205078125 139.1906890869141 764.516357421875 170.9572296142578 882.1201782226563 170.9572296142578 C 906.2655639648438 170.9572296142578 931.4309692382813 169.5929870605469 956.916748046875 166.9022216796875 C 980.0840454101563 164.4560699462891 1004.037109375 160.8595275878906 1028.110229492188 156.2126159667969 C 1068.652099609375 148.3860778808594 1110.280639648438 137.4737701416016 1151.839477539063 123.7779922485352 C 1168.16552734375 118.3976058959961 1184.520629882813 112.5695343017578 1200.449462890625 106.4556884765625 C 1213.19287109375 101.5641479492188 1225.694091796875 96.47991943359375 1237.605224609375 91.34376525878906 C 1255.039184570313 83.82667541503906 1266.128051757813 78.38004302978516 1268.974487304688 76.95976257324219 L 1268.974487304688 2696.499755859375 C 1267.501220703125 2697.474609375 1258.71630859375 2703.2099609375 1243.947875976563 2711.32373046875 C 1234.455932617188 2716.538818359375 1224.385986328125 2721.701171875 1214.017944335938 2726.66796875 C 1201.058715820313 2732.8759765625 1187.594482421875 2738.793701171875 1173.9990234375 2744.25732421875 C 1139.395629882813 2758.16259765625 1103.745971679688 2769.2421875 1068.04052734375 2777.188720703125 C 1046.841796875 2781.90673828125 1025.387451171875 2785.558349609375 1004.273681640625 2788.041748046875 C 981.0494384765625 2790.773681640625 957.6629028320313 2792.159423828125 934.7633056640625 2792.1611328125 Z" stroke="none"/>
    <path d="M 315.934814453125 -17.159423828125 C 295.2625122070313 -17.159423828125 273.9570922851563 -15.79931640625 252.6094360351563 -13.116943359375 C 233.199462890625 -10.67822265625 213.3182373046875 -7.091552734375 193.51904296875 -2.457275390625 C 160.1651611328125 5.349609375 126.4237060546875 16.236083984375 93.23095703125 29.89990234375 C 80.188720703125 35.268798828125 67.200927734375 41.08447265625 54.6282958984375 47.18603515625 C 44.56982421875 52.067138671875 34.7529296875 57.141357421875 25.4501953125 62.267333984375 C 11.5941162109375 69.90185546875 2.9957275390625 75.39453125 0.999755859375 76.68994140625 L 0.999755859375 2694.82373046875 C 4.068115234375 2692.66455078125 11.4921875 2687.591796875 22.6474609375 2680.926513671875 C 31.400146484375 2675.696533203125 40.710205078125 2670.51904296875 50.318603515625 2665.5390625 C 62.3275146484375 2659.314453125 74.83984375 2653.381103515625 87.50830078125 2647.90380859375 C 119.753662109375 2633.96142578125 153.19287109375 2622.852294921875 186.8970947265625 2614.885009765625 C 206.91015625 2610.154052734375 227.2406005859375 2606.492919921875 247.3236694335938 2604.0029296875 C 269.4163818359375 2601.263671875 291.7555541992188 2599.875 313.720947265625 2599.875 C 420.6767578125 2599.875 524.1002197265625 2632.193359375 621.117919921875 2695.93212890625 C 634.529052734375 2704.742919921875 648.2982788085938 2713.064208984375 662.0432739257813 2720.66455078125 C 675.3952026367188 2728.047119140625 689.0890502929688 2734.951904296875 702.7448120117188 2741.1865234375 C 715.9924926757813 2747.234619140625 729.5663452148438 2752.817138671875 743.0886840820313 2757.779541015625 C 756.1882934570313 2762.58642578125 769.5963134765625 2766.942138671875 782.9413452148438 2770.7255859375 C 795.847900390625 2774.385009765625 809.0459594726563 2777.60791015625 822.168701171875 2780.30615234375 C 834.838623046875 2782.91064453125 847.7813720703125 2785.09619140625 860.6375122070313 2786.801513671875 C 873.0260009765625 2788.44482421875 885.6682739257813 2789.686767578125 898.213623046875 2790.492919921875 C 910.2760009765625 2791.26806640625 922.5728759765625 2791.6611328125 934.7628784179688 2791.6611328125 C 957.6397705078125 2791.6611328125 981.0032958984375 2790.278076171875 1004.204833984375 2787.5498046875 C 1025.299438476563 2785.069580078125 1046.734008789063 2781.422607421875 1067.913330078125 2776.7099609375 C 1103.589111328125 2768.771484375 1139.20947265625 2757.701904296875 1173.78515625 2743.808349609375 C 1187.37060546875 2738.349609375 1200.824829101563 2732.4365234375 1213.775146484375 2726.23291015625 C 1224.135986328125 2721.27001953125 1234.198608398438 2716.110595703125 1243.684448242188 2710.8994140625 C 1257.831176757813 2703.12744140625 1266.48388671875 2697.538818359375 1268.473999023438 2696.230712890625 L 1268.473999023438 77.76611328125 C 1264.75146484375 79.607421875 1254.017578125 84.811279296875 1237.802856445313 91.802490234375 C 1225.88525390625 96.94140625 1213.3779296875 102.0283203125 1200.628295898438 106.921875 C 1184.691772460938 113.038818359375 1168.329467773438 118.869873046875 1151.99560546875 124.252685546875 C 1110.416748046875 137.954833984375 1068.767456054688 148.87255859375 1028.204833984375 156.702880859375 C 1004.117492675781 161.35302734375 980.1505737304688 164.951416015625 956.9690551757813 167.399169921875 C 931.4659423828125 170.091552734375 906.2828979492188 171.456787109375 882.1202392578125 171.456787109375 C 764.4002075195313 171.456787109375 664.7394409179688 139.65380859375 585.90673828125 76.931396484375 C 575.0220947265625 68.27099609375 563.74560546875 60.09228515625 552.3901977539063 52.621826171875 C 541.360595703125 45.36572265625 529.954833984375 38.57958984375 518.4898071289063 32.451904296875 C 507.3674926757813 26.50732421875 495.885986328125 21.020263671875 484.3640747070313 16.143310546875 C 473.2021484375 11.418701171875 461.6986694335938 7.1376953125 450.1724853515625 3.419189453125 C 439.0240478515625 -0.177490234375 427.5517578125 -3.345947265625 416.0740356445313 -5.997314453125 C 404.9917602539063 -8.557861328125 393.6044311523438 -10.705810546875 382.228271484375 -12.382080078125 C 371.2655639648438 -13.997314453125 360.0167236328125 -15.218505859375 348.7952270507813 -16.0107421875 C 338.0048217773438 -16.772705078125 326.9490356445313 -17.159423828125 315.934814453125 -17.159423828125 M 315.9349365234375 -18.1591796875 C 402.8368530273438 -18.1591796875 497.6201171875 5.4091796875 586.5294189453125 76.148681640625 C 675.42236328125 146.87548828125 780.9489135742188 170.45703125 882.1202392578125 170.45703125 C 1084.4814453125 170.45703125 1269.473999023438 76.148681640625 1269.473999023438 76.148681640625 L 1269.473999023438 2696.76806640625 C 1269.473999023438 2696.76806640625 1127.013427734375 2792.660888671875 934.7630615234375 2792.660888671875 C 838.6202392578125 2792.660888671875 730.0517578125 2768.696533203125 620.5686645507813 2696.76806640625 C 511.105712890625 2624.8525390625 405.6531372070313 2600.874755859375 313.720947265625 2600.874755859375 C 129.83984375 2600.874755859375 -0.000244140625 2696.76806640625 -0.000244140625 2696.76806640625 L -0.000244140625 76.148681640625 C -0.000244140625 76.148681640625 142.162841796875 -18.1591796875 315.9349365234375 -18.1591796875 Z" stroke="none" fill="#707070"/>
  </g>
</svg>
