<svg 
        xmlns="http://www.w3.org/2000/svg" xmlns:xlink="http://www.w3.org/1999/xlink" width="1920" height="1275"
        viewBox="0 0 1920 1275">
        <defs>
          <clipPath id="clip-path">
            <rect id="Rectángulo_710" data-name="Rectángulo 710" width="1920" height="1275"
              transform="translate(0 3439)" fill="none" stroke="#707070" stroke-width="1" />
          </clipPath>
        </defs>
        <g id="Enmascarar_grupo_132" data-name="Enmascarar grupo 132" transform="translate(0 -3439)"
          clip-path="url(#clip-path)">
          <path id="Trazado_2025" data-name="Trazado 2025"
            d="M10.773-110.905s237.8-83.561,479.468-50.843,282.88,51.9,490.881,110.1,436.8,86.253,688.586,0S2117.78-430.4,2117.78-430.4c8.284,0-30.792,433.912-30.792,440.349l37.1,392.814c0,6.436-28.812,133.24-37.1,133.24,0,0-220.824,78.029-507.865,115.708s-574.081,31.557-898.561-59.607-669.788,0-669.788,0c-8.284,0-41.573-133.816-41.573-140.253L0-25.829C0-32.265,2.488-110.905,10.773-110.905Z"
            transform="matrix(0.998, -0.07, 0.07, 0.998, -77.675, 3917.075)" fill="#a4ddee" />
          <path id="Trazado_1685" data-name="Trazado 1685"
            d="M10.773-108.93s237.8-84.855,479.468-51.63,282.88,52.7,490.881,111.8,436.8,87.589,688.586,0,417.28-189.78,417.28-189.78c8.284,0,0,245.8,0,252.335l37.1,398.894c0,6.536-28.812,135.3-37.1,135.3,0,0-452.874-248.717-981.574-60.7s-1056.7-24.757-1056.7-24.757c-8.284,0-79.513,6.536-79.513,0L0-22.536C0-29.072,2.488-108.93,10.773-108.93Z"
            transform="translate(-137.413 4087.65)" fill="#0f1010" />
        </g>
      </svg>