<svg xmlns="http://www.w3.org/2000/svg" width="260" height="228" viewBox="0 0 260 228">
  <g id="Grupo_1002" data-name="Grupo 1002" transform="translate(-1711.866 -1043)">
    <circle id="Elipse_73" data-name="Elipse 73" cx="11" cy="11" r="11" transform="translate(1711.866 1043)" fill="#fee5e8"/>
    <circle id="Elipse_82" data-name="Elipse 82" cx="11" cy="11" r="11" transform="translate(1711.866 1094)" fill="#fee5e8"/>
    <ellipse id="Elipse_87" data-name="Elipse 87" cx="11" cy="11.5" rx="11" ry="11.5" transform="translate(1711.866 1144)" fill="#fee5e8"/>
    <ellipse id="Elipse_92" data-name="Elipse 92" cx="11" cy="11.5" rx="11" ry="11.5" transform="translate(1711.866 1198)" fill="#fee5e8"/>
    <circle id="Elipse_97" data-name="Elipse 97" cx="11" cy="11" r="11" transform="translate(1711.866 1249)" fill="#fee5e8"/>
    <circle id="Elipse_74" data-name="Elipse 74" cx="11" cy="11" r="11" transform="translate(1770.866 1043)" fill="#fee5e8"/>
    <circle id="Elipse_81" data-name="Elipse 81" cx="11" cy="11" r="11" transform="translate(1770.866 1094)" fill="#fee5e8"/>
    <ellipse id="Elipse_86" data-name="Elipse 86" cx="11" cy="11.5" rx="11" ry="11.5" transform="translate(1770.866 1144)" fill="#fee5e8"/>
    <ellipse id="Elipse_91" data-name="Elipse 91" cx="11" cy="11.5" rx="11" ry="11.5" transform="translate(1770.866 1198)" fill="#fee5e8"/>
    <circle id="Elipse_96" data-name="Elipse 96" cx="11" cy="11" r="11" transform="translate(1770.866 1249)" fill="#fee5e8"/>
    <circle id="Elipse_75" data-name="Elipse 75" cx="11" cy="11" r="11" transform="translate(1830.866 1043)" fill="#fee5e8"/>
    <circle id="Elipse_80" data-name="Elipse 80" cx="11" cy="11" r="11" transform="translate(1830.866 1094)" fill="#fee5e8"/>
    <ellipse id="Elipse_85" data-name="Elipse 85" cx="11" cy="11.5" rx="11" ry="11.5" transform="translate(1830.866 1144)" fill="#fee5e8"/>
    <ellipse id="Elipse_90" data-name="Elipse 90" cx="11" cy="11.5" rx="11" ry="11.5" transform="translate(1830.866 1198)" fill="#fee5e8"/>
    <circle id="Elipse_95" data-name="Elipse 95" cx="11" cy="11" r="11" transform="translate(1830.866 1249)" fill="#fee5e8"/>
    <circle id="Elipse_76" data-name="Elipse 76" cx="11" cy="11" r="11" transform="translate(1890.866 1043)" fill="#fee5e8"/>
    <circle id="Elipse_79" data-name="Elipse 79" cx="11" cy="11" r="11" transform="translate(1890.866 1094)" fill="#fee5e8"/>
    <ellipse id="Elipse_84" data-name="Elipse 84" cx="11" cy="11.5" rx="11" ry="11.5" transform="translate(1890.866 1144)" fill="#fee5e8"/>
    <ellipse id="Elipse_89" data-name="Elipse 89" cx="11" cy="11.5" rx="11" ry="11.5" transform="translate(1890.866 1198)" fill="#fee5e8"/>
    <circle id="Elipse_94" data-name="Elipse 94" cx="11" cy="11" r="11" transform="translate(1890.866 1249)" fill="#fee5e8"/>
    <circle id="Elipse_77" data-name="Elipse 77" cx="11" cy="11" r="11" transform="translate(1949.866 1043)" fill="#fee5e8"/>
    <circle id="Elipse_78" data-name="Elipse 78" cx="11" cy="11" r="11" transform="translate(1949.866 1094)" fill="#fee5e8"/>
    <ellipse id="Elipse_83" data-name="Elipse 83" cx="11" cy="11.5" rx="11" ry="11.5" transform="translate(1949.866 1144)" fill="#fee5e8"/>
    <ellipse id="Elipse_88" data-name="Elipse 88" cx="11" cy="11.5" rx="11" ry="11.5" transform="translate(1949.866 1198)" fill="#fee5e8"/>
    <circle id="Elipse_93" data-name="Elipse 93" cx="11" cy="11" r="11" transform="translate(1949.866 1249)" fill="#fee5e8"/>
  </g>
</svg>
