<svg xmlns="http://www.w3.org/2000/svg" width="301" height="284.107" viewBox="0 0 301 284.107">
  <g id="Grupo_973" data-name="Grupo 973" transform="translate(166 -7407.227)">
    <circle id="Elipse_185" data-name="Elipse 185" cx="100.447" cy="100.447" r="100.447" transform="translate(-163.548 7549.281) rotate(-45)" fill="#cfeef3"/>
    <g id="Grupo_968" data-name="Grupo 968" transform="translate(-89.961 7470.025)">
      <g id="Grupo_967" data-name="Grupo 967" transform="translate(0 0)">
        <g id="Grupo_963" data-name="Grupo 963">
          <g id="Grupo_962" data-name="Grupo 962">
            <path id="Trazado_2661" data-name="Trazado 2661" d="M344.977,225.537,274.673,267l-70.3-41.459a.4.4,0,0,1,.011-.114c.058-.263,3.938-3.5,9.856-8.311.056-.045.1-.09.16-.137,19.412-15.762,60.275-48.039,60.275-48.039s40.864,32.278,60.277,48.039c6.01,4.877,9.959,8.173,10.017,8.448A.4.4,0,0,1,344.977,225.537Z" transform="translate(-204.371 -134.601)" fill="#dab53b"/>
            <g id="Grupo_960" data-name="Grupo 960" transform="translate(11.582)">
              <path id="Trazado_2662" data-name="Trazado 2662" d="M299.448,146.871H223.6a11.782,11.782,0,0,0-11.781,11.781V273.34A11.78,11.78,0,0,0,223.6,285.12h95.046a11.78,11.78,0,0,0,11.781-11.78v-95.5Z" transform="translate(-211.814 -146.871)" fill="#fff"/>
              <path id="Trazado_2663" data-name="Trazado 2663" d="M268.131,166.065a11.779,11.779,0,0,0,11.781,11.78H299.1l-30.974-30.974Z" transform="translate(-180.497 -146.871)" fill="#e6e8e8"/>
              <rect id="Rectángulo_692" data-name="Rectángulo 692" width="34.562" height="34.562" rx="2.697" transform="translate(17.943 19.386)" fill="#ff0313"/>
              <path id="Trazado_2664" data-name="Trazado 2664" d="M289.545,187.713H226.752a3.382,3.382,0,0,0-3.381,3.381h0a3.382,3.382,0,0,0,3.381,3.381h62.793a3.382,3.382,0,0,0,3.381-3.381h0A3.382,3.382,0,0,0,289.545,187.713Z" transform="translate(-205.387 -124.159)" fill="#d9dbdb"/>
              <path id="Trazado_2665" data-name="Trazado 2665" d="M289.545,198.537H226.752a3.382,3.382,0,0,0-3.381,3.381h0a3.382,3.382,0,0,0,3.381,3.381h62.793a3.382,3.382,0,0,0,3.381-3.381h0A3.382,3.382,0,0,0,289.545,198.537Z" transform="translate(-205.387 -118.14)" fill="#d9dbdb"/>
              <path id="Trazado_2666" data-name="Trazado 2666" d="M261.028,209.037H226.752a3.382,3.382,0,0,0-3.381,3.381h0a3.382,3.382,0,0,0,3.381,3.381h34.276a3.382,3.382,0,0,0,3.381-3.381h0A3.382,3.382,0,0,0,261.028,209.037Z" transform="translate(-205.387 -112.301)" fill="#d9dbdb"/>
            </g>
            <g id="Grupo_961" data-name="Grupo 961" transform="translate(0.008 90.935)">
              <path id="Trazado_2667" data-name="Trazado 2667" d="M344.982,205.309v67.447a8.589,8.589,0,0,1-8.568,8.566H212.92a8.569,8.569,0,0,1-8.544-8.566V205.309l70.3,41.451Z" transform="translate(-204.376 -205.309)" fill="#ffe38b"/>
              <path id="Trazado_2668" data-name="Trazado 2668" d="M341.761,268.605l-45.249-45.249-22.678,13.371-22.686-13.376L205.895,268.6a8.49,8.49,0,0,0,6.181,2.686H335.57A8.524,8.524,0,0,0,341.761,268.605Z" transform="translate(-203.531 -195.276)" fill="#f2d36e"/>
            </g>
          </g>
        </g>
      </g>
    </g>
    <g id="Grupo_972" data-name="Grupo 972" transform="translate(45.606 7557.991) rotate(-173)">
      <path id="Trazado_2669" data-name="Trazado 2669" d="M2.157.04A.716.716,0,0,1,2.6.95L2.237,3.387c-.129.374-.729.506-1.339.294h0C.286,3.47-.1,3,.025,2.622L1.245.482A.716.716,0,0,1,2.157.04Z" transform="translate(39.715 0)" fill="#814c28"/>
      <path id="Trazado_2670" data-name="Trazado 2670" d="M8.295,0,0,10.533l11.215,3.878L11.2,1Z" transform="translate(31.494 1.358)" fill="#00487f"/>
      <path id="Trazado_2671" data-name="Trazado 2671" d="M0,12.248,4.5,13.8,4.486.4,3.334,0Z" transform="translate(38.208 1.964)" fill="#d2d1d1" style="mix-blend-mode: multiply;isolation: isolate"/>
      <path id="Trazado_2672" data-name="Trazado 2672" d="M4.286,0,.319,11.473a5.774,5.774,0,0,0,10.915,3.774L15.2,3.775Z" transform="translate(0.39 90.415)" fill="#005fab"/>
      <path id="Trazado_2673" data-name="Trazado 2673" d="M0,15.882a5.758,5.758,0,0,0,8.712-2.876L12.679,1.533,8.248,0C6.6,5.584,5.215,14.044,0,15.882Z" transform="translate(2.911 92.657)" fill="#d2d1d1" style="mix-blend-mode: multiply;isolation: isolate"/>
      <rect id="Rectángulo_693" data-name="Rectángulo 693" width="82.205" height="11.867" transform="matrix(0.327, -0.945, 0.945, 0.327, 4.628, 89.581)" fill="#005fab"/>
      <rect id="Rectángulo_694" data-name="Rectángulo 694" width="82.205" height="4.774" transform="matrix(0.327, -0.945, 0.945, 0.327, 11.331, 91.899)" fill="#d2d1d1" style="mix-blend-mode: multiply;isolation: isolate"/>
      <rect id="Rectángulo_695" data-name="Rectángulo 695" width="24.552" height="2.319" transform="translate(16.467 62.163) rotate(-70.924)" fill="#d2d1d1"/>
      <path id="Trazado_2674" data-name="Trazado 2674" d="M16.645,5.272a.264.264,0,0,1,.153.341L15.706,8.772a.265.265,0,0,1-.331.174L.169,3.687a.265.265,0,0,1-.153-.342L1.108.188A.266.266,0,0,1,1.439.013Z" transform="translate(0.073 87.865)" fill="#757474"/>
      <rect id="Rectángulo_696" data-name="Rectángulo 696" width="38.47" height="2.319" transform="translate(0 91.468) rotate(-70.924)" fill="#757474"/>
      <path id="Trazado_2675" data-name="Trazado 2675" d="M2.42.024c.583.2.617,1.633.076,3.2S1.044,5.892.46,5.69s-.616-1.634-.076-3.2S1.837-.178,2.42.024Z" transform="translate(12.304 55.832)" fill="#757474"/>
    </g>
    <g id="Trazado_1872" data-name="Trazado 1872" transform="translate(-107.328 7461.997) rotate(130)" fill="none">
      <path d="M17.958,0A17.958,17.958,0,1,1,0,17.958,17.958,17.958,0,0,1,17.958,0Z" stroke="none"/>
      <path d="M 17.95776176452637 11.9999942779541 C 14.67264556884766 11.9999942779541 11.9999942779541 14.67264556884766 11.9999942779541 17.95776176452637 C 11.9999942779541 21.24287796020508 14.67264556884766 23.91552734375 17.95776176452637 23.91552734375 C 21.24287796020508 23.91552734375 23.91552734375 21.24287796020508 23.91552734375 17.95776176452637 C 23.91552734375 14.67264556884766 21.24287796020508 11.9999942779541 17.95776176452637 11.9999942779541 M 17.95776176452637 -3.814697265625e-06 C 27.87556076049805 -3.814697265625e-06 35.91552734375 8.039960861206055 35.91552734375 17.95776176452637 C 35.91552734375 27.87556076049805 27.87556076049805 35.91552734375 17.95776176452637 35.91552734375 C 8.039960861206055 35.91552734375 -3.814697265625e-06 27.87556076049805 -3.814697265625e-06 17.95776176452637 C -3.814697265625e-06 8.039960861206055 8.039960861206055 -3.814697265625e-06 17.95776176452637 -3.814697265625e-06 Z" stroke="none" fill="#a4ddee"/>
    </g>
    <g id="Trazado_2748" data-name="Trazado 2748" transform="translate(84.421 7660.122) rotate(130)" fill="none">
      <path d="M17.958,0A17.958,17.958,0,1,1,0,17.958,17.958,17.958,0,0,1,17.958,0Z" stroke="none"/>
      <path d="M 17.95776176452637 11.9999942779541 C 14.67264556884766 11.9999942779541 11.9999942779541 14.67264556884766 11.9999942779541 17.95776176452637 C 11.9999942779541 21.24287796020508 14.67264556884766 23.91552734375 17.95776176452637 23.91552734375 C 21.24287796020508 23.91552734375 23.91552734375 21.24287796020508 23.91552734375 17.95776176452637 C 23.91552734375 14.67264556884766 21.24287796020508 11.9999942779541 17.95776176452637 11.9999942779541 M 17.95776176452637 -3.814697265625e-06 C 27.87556076049805 -3.814697265625e-06 35.91552734375 8.039960861206055 35.91552734375 17.95776176452637 C 35.91552734375 27.87556076049805 27.87556076049805 35.91552734375 17.95776176452637 35.91552734375 C 8.039960861206055 35.91552734375 -3.814697265625e-06 27.87556076049805 -3.814697265625e-06 17.95776176452637 C -3.814697265625e-06 8.039960861206055 8.039960861206055 -3.814697265625e-06 17.95776176452637 -3.814697265625e-06 Z" stroke="none" fill="#a4ddee"/>
    </g>
    <g id="Trazado_1874" data-name="Trazado 1874" transform="translate(-126.05 7635.428) rotate(130)" fill="none">
      <path d="M14.179,0A14.179,14.179,0,1,1,0,14.179,14.179,14.179,0,0,1,14.179,0Z" stroke="none"/>
      <path d="M 14.17853260040283 10.00000381469727 C 11.87448883056641 10.00000381469727 10.00000381469727 11.87448883056641 10.00000381469727 14.17853260040283 C 10.00000381469727 16.48257446289063 11.87448883056641 18.3570613861084 14.17853260040283 18.3570613861084 C 16.48257446289063 18.3570613861084 18.3570613861084 16.48257446289063 18.3570613861084 14.17853260040283 C 18.3570613861084 11.87448883056641 16.48257446289063 10.00000381469727 14.17853260040283 10.00000381469727 M 14.17853260040283 3.814697265625e-06 C 22.00911712646484 3.814697265625e-06 28.3570613861084 6.347946166992188 28.3570613861084 14.17853260040283 C 28.3570613861084 22.00911712646484 22.00911712646484 28.3570613861084 14.17853260040283 28.3570613861084 C 6.347946166992188 28.3570613861084 3.814697265625e-06 22.00911712646484 3.814697265625e-06 14.17853260040283 C 3.814697265625e-06 6.347946166992188 6.347946166992188 3.814697265625e-06 14.17853260040283 3.814697265625e-06 Z" stroke="none" fill="#a4ddee"/>
    </g>
    <g id="Trazado_2747" data-name="Trazado 2747" transform="translate(135 7519.358) rotate(130)" fill="none">
      <path d="M14.179,0A14.179,14.179,0,1,1,0,14.179,14.179,14.179,0,0,1,14.179,0Z" stroke="none"/>
      <path d="M 14.17853260040283 10.00000381469727 C 11.87448883056641 10.00000381469727 10.00000381469727 11.87448883056641 10.00000381469727 14.17853260040283 C 10.00000381469727 16.48257446289063 11.87448883056641 18.3570613861084 14.17853260040283 18.3570613861084 C 16.48257446289063 18.3570613861084 18.3570613861084 16.48257446289063 18.3570613861084 14.17853260040283 C 18.3570613861084 11.87448883056641 16.48257446289063 10.00000381469727 14.17853260040283 10.00000381469727 M 14.17853260040283 3.814697265625e-06 C 22.00911712646484 3.814697265625e-06 28.3570613861084 6.347946166992188 28.3570613861084 14.17853260040283 C 28.3570613861084 22.00911712646484 22.00911712646484 28.3570613861084 14.17853260040283 28.3570613861084 C 6.347946166992188 28.3570613861084 3.814697265625e-06 22.00911712646484 3.814697265625e-06 14.17853260040283 C 3.814697265625e-06 6.347946166992188 6.347946166992188 3.814697265625e-06 14.17853260040283 3.814697265625e-06 Z" stroke="none" fill="#a4ddee"/>
    </g>
    <g id="Trazado_2676" data-name="Trazado 2676" transform="translate(-126.242 7514.682) rotate(130)" fill="none">
      <path d="M8.594,0A8.594,8.594,0,1,1,0,8.594,8.594,8.594,0,0,1,8.594,0Z" stroke="none"/>
      <path d="M 8.594104766845703 3.814697265625e-06 C 13.34049224853516 3.814697265625e-06 17.18820571899414 3.84771728515625 17.18820571899414 8.594104766845703 C 17.18820571899414 13.34049224853516 13.34049224853516 17.18820571899414 8.594104766845703 17.18820571899414 C 3.84771728515625 17.18820571899414 3.814697265625e-06 13.34049224853516 3.814697265625e-06 8.594104766845703 C 3.814697265625e-06 3.84771728515625 3.84771728515625 3.814697265625e-06 8.594104766845703 3.814697265625e-06 Z" stroke="none" fill="#cfeef3"/>
    </g>
    <g id="Trazado_2746" data-name="Trazado 2746" transform="translate(120.559 7616.295) rotate(130)" fill="none">
      <path d="M8.594,0A8.594,8.594,0,1,1,0,8.594,8.594,8.594,0,0,1,8.594,0Z" stroke="none"/>
      <path d="M 8.594104766845703 3.814697265625e-06 C 13.34049224853516 3.814697265625e-06 17.18820571899414 3.84771728515625 17.18820571899414 8.594104766845703 C 17.18820571899414 13.34049224853516 13.34049224853516 17.18820571899414 8.594104766845703 17.18820571899414 C 3.84771728515625 17.18820571899414 3.814697265625e-06 13.34049224853516 3.814697265625e-06 8.594104766845703 C 3.814697265625e-06 3.84771728515625 3.84771728515625 3.814697265625e-06 8.594104766845703 3.814697265625e-06 Z" stroke="none" fill="#cfeef3"/>
    </g>
  </g>
</svg>
